<?xml version="1.0" encoding="UTF-8" standalone="no"?>
<!DOCTYPE svg PUBLIC "-//W3C//DTD SVG 1.1//EN" "http://www.w3.org/Graphics/SVG/1.1/DTD/svg11.dtd">
<!-- Created with Vectornator (http://vectornator.io/) -->
<svg height="100%" stroke-miterlimit="10" style="fill-rule:nonzero;clip-rule:evenodd;stroke-linecap:round;stroke-linejoin:round;" version="1.1" viewBox="0 0 620.442 102.167" width="100%" xml:space="preserve" xmlns="http://www.w3.org/2000/svg" xmlns:vectornator="http://vectornator.io" xmlns:xlink="http://www.w3.org/1999/xlink">
<defs>
<clipPath id="TextBounds">
<rect height="95" width="269.65" x="1.00551" y="-15.1472"/>
</clipPath>
<filter color-interpolation-filters="sRGB" filterUnits="userSpaceOnUse" height="46.5527" id="Filter" width="254.14" x="1.02955" y="0.500109">
<feDropShadow dx="-1.57597" dy="-2.55271" flood-color="#000000" flood-opacity="0.141964" in="SourceGraphic" result="Shadow" stdDeviation="1"/>
</filter>
<clipPath id="TextBounds_2">
<rect height="110" width="269.65" x="1.00551" y="26.0996"/>
</clipPath>
<filter color-interpolation-filters="sRGB" filterUnits="userSpaceOnUse" height="53.5527" id="Filter_2" width="251.31" x="0.0495454" y="44.9469">
<feDropShadow dx="-1.57597" dy="-2.55271" flood-color="#000000" flood-opacity="0.141964" in="SourceGraphic" result="Shadow" stdDeviation="1"/>
</filter>
<clipPath id="TextBounds_3">
<rect height="217" width="519.105" x="246.463" y="-43.6377"/>
</clipPath>
<filter color-interpolation-filters="sRGB" filterUnits="userSpaceOnUse" height="101.153" id="Filter_3" width="370.666" x="246.596" y="-1.03036">
<feDropShadow dx="-1.57597" dy="-2.55271" flood-color="#000000" flood-opacity="0.141964" in="SourceGraphic" result="Shadow" stdDeviation="1"/>
</filter>
</defs>
<clipPath id="ArtboardFrame">
<rect height="102.167" width="620.442" x="0" y="0"/>
</clipPath>
<g clip-path="url(#ArtboardFrame)" id="Layer-1" vectornator:layerName="Layer 1">
<g opacity="1">
<g fill="#1d1c1c" filter="url(#Filter)" stroke="none" vectornator:shadowAngle="45" vectornator:shadowColor="#000000" vectornator:shadowOffset="-3" vectornator:shadowOpacity="0.141964" vectornator:shadowRadius="2">
<path clip-path="url(#TextBounds)" d="M26.2055 47.0528C23.0855 47.0528 20.2155 46.5028 17.5955 45.4028C14.9755 44.3028 12.6955 42.7728 10.7555 40.8128C8.81551 38.8528 7.30551 36.5628 6.22551 33.9428C5.14551 31.3228 4.60551 28.4928 4.60551 25.4528C4.60551 21.6128 5.42551 18.1528 7.06551 15.0728C8.70551 11.9928 11.0155 9.55282 13.9955 7.75282C16.9755 5.95282 20.4455 5.05282 24.4055 5.05282C28.1655 5.05282 31.2455 5.54282 33.6455 6.52282C36.0455 7.50282 37.8055 8.63282 38.9255 9.91282C39.7255 10.9128 40.1855 12.2128 40.3055 13.8128C40.4255 15.4128 40.4855 16.8928 40.4855 18.2528L38.6855 18.2528C37.9255 14.5728 36.5255 11.9028 34.4855 10.2428C32.4455 8.58282 29.6855 7.75282 26.2055 7.75282C23.8055 7.75282 21.7755 8.23282 20.1155 9.19282C18.4555 10.1528 17.0955 11.4728 16.0355 13.1528C14.9755 14.8328 14.2055 16.7328 13.7255 18.8528C13.2455 20.9728 13.0055 23.1728 13.0055 25.4528C13.0055 30.2928 13.5955 34.1128 14.7755 36.9128C15.9555 39.7128 17.5455 41.7028 19.5455 42.8828C21.5455 44.0628 23.7655 44.6528 26.2055 44.6528C28.0055 44.6528 29.5455 44.5128 30.8255 44.2328C32.1055 43.9528 33.2655 43.5728 34.3055 43.0928L34.3055 32.4128C34.3055 31.5728 34.4355 30.7328 34.6955 29.8928C34.9555 29.0528 35.4855 28.2628 36.2855 27.5228C37.0855 26.7828 38.2555 26.1928 39.7955 25.7528C41.3355 25.3128 43.3855 25.0928 45.9455 25.0928L45.9455 26.5928C44.5855 26.5928 43.6055 27.0928 43.0055 28.0928C42.4055 29.0928 42.1055 30.4928 42.1055 32.2928L42.1055 43.0328C39.7855 44.4328 37.3255 45.4528 34.7255 46.0928C32.1255 46.7328 29.2855 47.0528 26.2055 47.0528Z" fill-rule="evenodd"/>
<path clip-path="url(#TextBounds)" d="M52.2455 45.8528L52.2455 14.0528C52.2455 12.2528 51.9955 10.8028 51.4955 9.70282C50.9955 8.60282 49.8455 8.05282 48.0455 8.05282L47.4455 8.05282L47.4455 6.25282L73.9055 6.25282C75.3055 6.25282 76.3655 6.48282 77.0855 6.94282C77.8055 7.40282 78.3055 8.00282 78.5855 8.74282C78.8655 9.48282 79.0055 10.2528 79.0055 11.0528L79.0055 16.1528L77.2055 16.1528C77.2055 13.5928 76.5555 11.7528 75.2555 10.6328C73.9555 9.51282 72.1055 8.95282 69.7055 8.95282L60.0455 8.95282L60.0455 23.9528L75.6455 23.9528L75.6455 26.6528L60.0455 26.6528L60.0455 43.1528L70.3055 43.1528C72.5055 43.1528 74.3755 42.6628 75.9155 41.6828C77.4555 40.7028 78.7455 38.9128 79.7855 36.3128L81.4055 36.9128L79.6655 41.6528C79.2255 42.9328 78.6555 43.9528 77.9555 44.7128C77.2555 45.4728 76.0855 45.8528 74.4455 45.8528L52.2455 45.8528Z" fill-rule="evenodd"/>
<path clip-path="url(#TextBounds)" d="M96.4655 45.8528L96.4655 8.95282L92.2055 8.95282C90.0855 8.95282 88.4055 9.48282 87.1655 10.5428C85.9255 11.6028 85.3055 13.4728 85.3055 16.1528L83.5055 16.1528L83.5055 11.0528C83.5055 10.2528 83.6455 9.48282 83.9255 8.74282C84.2055 8.00282 84.7155 7.40282 85.4555 6.94282C86.1955 6.48282 87.2455 6.25282 88.6055 6.25282L116.806 6.25282L116.806 8.95282L104.266 8.95282L104.266 45.8528L96.4655 45.8528Z" fill-rule="evenodd"/>
<path clip-path="url(#TextBounds)" d="M130.966 45.8528L130.966 8.95282L126.706 8.95282C124.586 8.95282 122.906 9.48282 121.666 10.5428C120.426 11.6028 119.806 13.4728 119.806 16.1528L118.006 16.1528L118.006 11.0528C118.006 10.2528 118.146 9.48282 118.426 8.74282C118.706 8.00282 119.216 7.40282 119.956 6.94282C120.696 6.48282 121.746 6.25282 123.106 6.25282L151.306 6.25282L151.306 8.95282L138.766 8.95282L138.766 45.8528L130.966 45.8528Z" fill-rule="evenodd"/>
<path clip-path="url(#TextBounds)" d="M161.686 45.8528C160.286 45.8528 159.196 45.6228 158.416 45.1628C157.636 44.7028 157.086 43.9028 156.766 42.7628C156.446 41.6228 156.286 40.0528 156.286 38.0528L156.286 6.25282L164.086 6.25282L164.086 38.0528C164.086 39.8528 164.336 41.3028 164.836 42.4028C165.336 43.5028 166.486 44.0528 168.286 44.0528L168.886 44.0528L168.886 45.8528L161.686 45.8528Z" fill-rule="evenodd"/>
<path clip-path="url(#TextBounds)" d="M204.106 46.0328L178.666 16.1528L178.666 45.8528L175.666 45.8528L175.666 13.4528C175.666 11.9328 175.296 10.6528 174.556 9.61282C173.816 8.57282 172.386 8.05282 170.266 8.05282L169.966 8.05282L169.966 6.25282L174.166 6.25282C176.446 6.25282 178.296 6.55282 179.716 7.15282C181.136 7.75282 182.306 8.65282 183.226 9.85282L203.866 33.8528L203.866 6.25282L206.866 6.25282L206.866 46.0328L204.106 46.0328Z" fill-rule="evenodd"/>
<path clip-path="url(#TextBounds)" d="M235.006 47.0528C231.886 47.0528 229.016 46.5028 226.396 45.4028C223.776 44.3028 221.496 42.7728 219.556 40.8128C217.616 38.8528 216.106 36.5628 215.026 33.9428C213.946 31.3228 213.406 28.4928 213.406 25.4528C213.406 21.6128 214.226 18.1528 215.866 15.0728C217.506 11.9928 219.816 9.55282 222.796 7.75282C225.776 5.95282 229.246 5.05282 233.206 5.05282C236.966 5.05282 240.046 5.54282 242.446 6.52282C244.846 7.50282 246.606 8.63282 247.726 9.91282C248.526 10.9128 248.986 12.2128 249.106 13.8128C249.226 15.4128 249.286 16.8928 249.286 18.2528L247.486 18.2528C246.726 14.5728 245.326 11.9028 243.286 10.2428C241.246 8.58282 238.486 7.75282 235.006 7.75282C232.606 7.75282 230.576 8.23282 228.916 9.19282C227.256 10.1528 225.896 11.4728 224.836 13.1528C223.776 14.8328 223.006 16.7328 222.526 18.8528C222.046 20.9728 221.806 23.1728 221.806 25.4528C221.806 30.2928 222.396 34.1128 223.576 36.9128C224.756 39.7128 226.346 41.7028 228.346 42.8828C230.346 44.0628 232.566 44.6528 235.006 44.6528C236.806 44.6528 238.346 44.5128 239.626 44.2328C240.906 43.9528 242.066 43.5728 243.106 43.0928L243.106 32.4128C243.106 31.5728 243.236 30.7328 243.496 29.8928C243.756 29.0528 244.286 28.2628 245.086 27.5228C245.886 26.7828 247.056 26.1928 248.596 25.7528C250.136 25.3128 252.186 25.0928 254.746 25.0928L254.746 26.5928C253.386 26.5928 252.406 27.0928 251.806 28.0928C251.206 29.0928 250.906 30.4928 250.906 32.2928L250.906 43.0328C248.586 44.4328 246.126 45.4528 243.526 46.0928C240.926 46.7328 238.086 47.0528 235.006 47.0528Z" fill-rule="evenodd"/>
</g>
<g fill="#5e5e5e" filter="url(#Filter_2)" stroke="#5e5e5e" stroke-linecap="round" stroke-linejoin="miter" stroke-width="0" vectornator:shadowAngle="45" vectornator:shadowColor="#000000" vectornator:shadowOffset="-3" vectornator:shadowOpacity="0.141964" vectornator:shadowRadius="2">
<path clip-path="url(#TextBounds_2)" d="M18.7455 97.0996L18.7455 54.0496L13.7755 54.0496C11.3022 54.0496 9.34218 54.668 7.89551 55.9046C6.44884 57.1413 5.72551 59.323 5.72551 62.4496L3.62551 62.4496L3.62551 56.4996C3.62551 55.5663 3.78884 54.668 4.11551 53.8046C4.44218 52.9413 5.03718 52.2413 5.90051 51.7046C6.76384 51.168 7.98884 50.8996 9.57551 50.8996L42.4755 50.8996L42.4755 54.0496L27.8455 54.0496L27.8455 97.0996L18.7455 97.0996Z" fill-rule="evenodd"/>
<path clip-path="url(#TextBounds_2)" d="M49.4055 97.0996L49.4055 59.9996C49.4055 57.8996 49.1138 56.208 48.5305 54.9246C47.9472 53.6413 46.6055 52.9996 44.5055 52.9996L43.8055 52.9996L43.8055 50.8996L52.2055 50.8996C53.8388 50.8996 55.1105 51.1796 56.0205 51.7396C56.9305 52.2996 57.5722 53.233 57.9455 54.5396C58.3188 55.8463 58.5055 57.6663 58.5055 59.9996L58.5055 71.5496L77.4055 71.5496L77.4055 50.8996L86.5055 50.8996L86.5055 87.9996C86.5055 90.0996 86.7972 91.7913 87.3805 93.0746C87.9638 94.358 89.3055 94.9996 91.4055 94.9996L92.1055 94.9996L92.1055 97.0996L83.7055 97.0996C82.0722 97.0996 80.8005 96.8313 79.8905 96.2946C78.9805 95.758 78.3388 94.8246 77.9655 93.4946C77.5922 92.1646 77.4055 90.333 77.4055 87.9996L77.4055 74.6996L58.5055 74.6996L58.5055 97.0996L49.4055 97.0996Z" fill-rule="evenodd"/>
<path clip-path="url(#TextBounds_2)" d="M104.986 97.0996C103.352 97.0996 102.081 96.8313 101.171 96.2946C100.261 95.758 99.6188 94.8246 99.2455 93.4946C98.8722 92.1646 98.6855 90.333 98.6855 87.9996L98.6855 50.8996L107.786 50.8996L107.786 87.9996C107.786 90.0996 108.077 91.7913 108.661 93.0746C109.244 94.358 110.586 94.9996 112.686 94.9996L113.386 94.9996L113.386 97.0996L104.986 97.0996Z" fill-rule="evenodd"/>
<path clip-path="url(#TextBounds_2)" d="M154.476 97.3096L124.796 62.4496L124.796 97.0996L121.296 97.0996L121.296 59.2996C121.296 57.5263 120.864 56.033 120.001 54.8196C119.137 53.6063 117.469 52.9996 114.996 52.9996L114.646 52.9996L114.646 50.8996L119.546 50.8996C122.206 50.8996 124.364 51.2496 126.021 51.9496C127.677 52.6496 129.042 53.6996 130.116 55.0996L154.196 83.0996L154.196 50.8996L157.696 50.8996L157.696 97.3096L154.476 97.3096Z" fill-rule="evenodd"/>
<path clip-path="url(#TextBounds_2)" d="M190.526 98.4996C186.886 98.4996 183.537 97.858 180.481 96.5746C177.424 95.2913 174.764 93.5063 172.501 91.2196C170.237 88.933 168.476 86.2613 167.216 83.2046C165.956 80.148 165.326 76.8463 165.326 73.2996C165.326 68.8196 166.282 64.783 168.196 61.1896C170.109 57.5963 172.804 54.7496 176.281 52.6496C179.757 50.5496 183.806 49.4996 188.426 49.4996C192.812 49.4996 196.406 50.0713 199.206 51.2146C202.006 52.358 204.059 53.6763 205.366 55.1696C206.299 56.3363 206.836 57.853 206.976 59.7196C207.116 61.5863 207.186 63.313 207.186 64.8996L205.086 64.8996C204.199 60.6063 202.566 57.4913 200.186 55.5546C197.806 53.618 194.586 52.6496 190.526 52.6496C187.726 52.6496 185.357 53.2096 183.421 54.3296C181.484 55.4496 179.897 56.9896 178.661 58.9496C177.424 60.9096 176.526 63.1263 175.966 65.5996C175.406 68.073 175.126 70.6396 175.126 73.2996C175.126 78.9463 175.814 83.403 177.191 86.6696C178.567 89.9363 180.422 92.258 182.756 93.6346C185.089 95.0113 187.679 95.6996 190.526 95.6996C192.626 95.6996 194.422 95.5363 195.916 95.2096C197.409 94.883 198.762 94.4396 199.976 93.8796L199.976 81.4196C199.976 80.4396 200.127 79.4596 200.431 78.4796C200.734 77.4996 201.352 76.578 202.286 75.7146C203.219 74.8513 204.584 74.163 206.381 73.6496C208.177 73.1363 210.569 72.8796 213.556 72.8796L213.556 74.6296C211.969 74.6296 210.826 75.213 210.126 76.3796C209.426 77.5463 209.076 79.1796 209.076 81.2796L209.076 93.8096C206.369 95.443 203.499 96.633 200.466 97.3796C197.432 98.1263 194.119 98.4996 190.526 98.4996Z" fill-rule="evenodd"/>
<path clip-path="url(#TextBounds_2)" d="M233.366 98.2896C231.452 98.2896 229.562 98.103 227.696 97.7296C225.829 97.3563 224.126 96.808 222.586 96.0846C221.046 95.3613 219.821 94.4746 218.911 93.4246C218.001 92.3746 217.546 91.1963 217.546 89.8896L217.546 81.6996L219.506 81.6996C220.252 86.553 221.757 90.0063 224.021 92.0596C226.284 94.113 229.376 95.1396 233.296 95.1396C235.069 95.1396 236.621 94.883 237.951 94.3696C239.281 93.8563 240.307 93.098 241.031 92.0946C241.754 91.0913 242.116 89.843 242.116 88.3496C242.116 86.343 241.474 84.6746 240.191 83.3446C238.907 82.0146 237.146 80.673 234.906 79.3196L226.296 74.1396C223.122 72.273 220.882 70.3596 219.576 68.3996C218.269 66.4396 217.616 64.1763 217.616 61.6096C217.616 57.923 219.027 55.0063 221.851 52.8596C224.674 50.713 228.489 49.6396 233.296 49.6396C235.209 49.6396 237.099 49.8263 238.966 50.1996C240.832 50.573 242.536 51.1213 244.076 51.8446C245.616 52.568 246.841 53.443 247.751 54.4696C248.661 55.4963 249.116 56.6863 249.116 58.0396L249.116 66.2296L247.156 66.2296C246.362 61.3763 244.869 57.923 242.676 55.8696C240.482 53.8163 237.612 52.7896 234.066 52.7896C232.386 52.7896 230.927 53.0696 229.691 53.6296C228.454 54.1896 227.509 54.9713 226.856 55.9746C226.202 56.978 225.876 58.1796 225.876 59.5796C225.876 61.5396 226.541 63.1263 227.871 64.3396C229.201 65.553 230.962 66.813 233.156 68.1196L241.766 73.2296C244.939 75.0963 247.261 76.928 248.731 78.7246C250.201 80.5213 250.936 82.703 250.936 85.2696C250.936 89.283 249.419 92.4563 246.386 94.7896C243.352 97.123 239.012 98.2896 233.366 98.2896Z" fill-rule="evenodd"/>
</g>
<g fill="#3e68ff" filter="url(#Filter_3)" stroke="#1a1919" stroke-linecap="round" stroke-linejoin="miter" stroke-width="0" vectornator:shadowAngle="45" vectornator:shadowColor="#000000" vectornator:shadowOffset="-3" vectornator:shadowOpacity="0.141964" vectornator:shadowRadius="2">
<path clip-path="url(#TextBounds_3)" d="M262.591 97.3623L262.591 22.8423C262.591 18.7023 262.016 15.3673 260.866 12.8373C259.716 10.3073 257.071 9.04235 252.931 9.04235L250.171 9.04235L250.171 6.28235L286.327 6.28235C304.543 6.28235 318.136 10.3303 327.106 18.4263C336.076 26.5223 340.561 37.4703 340.561 51.2703C340.561 60.1943 338.652 68.1293 334.834 75.0753C331.016 82.0213 325.358 87.4723 317.86 91.4283C310.362 95.3843 301.047 97.3623 289.915 97.3623L262.591 97.3623ZM289.501 92.5323C296.309 92.5323 302.427 90.8763 307.855 87.5643C313.283 84.2523 317.584 79.5373 320.758 73.4193C323.932 67.3013 325.519 60.1023 325.519 51.8223C325.519 43.6343 323.955 36.5043 320.827 30.4323C317.699 24.3603 313.421 19.6223 307.993 16.2183C302.565 12.8143 296.309 11.1123 289.225 11.1123C287.201 11.1123 285.016 11.2963 282.67 11.6643C280.324 12.0323 277.909 12.5843 275.425 13.3203L275.425 90.7383C277.265 91.1063 278.99 91.4283 280.6 91.7043C282.21 91.9803 283.774 92.1873 285.292 92.3253C286.81 92.4633 288.213 92.5323 289.501 92.5323Z" fill-rule="evenodd"/>
<path clip-path="url(#TextBounds_3)" d="M395.761 100.122C387.021 100.122 379.454 97.9833 373.06 93.7053C366.666 89.4273 361.721 83.6313 358.225 76.3173C354.729 69.0033 352.981 60.8383 352.981 51.8223C352.981 42.8063 354.729 34.6413 358.225 27.3273C361.721 20.0133 366.666 14.2173 373.06 9.93935C379.454 5.66135 387.021 3.52235 395.761 3.52235C404.501 3.52235 412.068 5.66135 418.462 9.93935C424.856 14.2173 429.801 20.0133 433.297 27.3273C436.793 34.6413 438.541 42.8063 438.541 51.8223C438.541 60.8383 436.793 69.0033 433.297 76.3173C429.801 83.6313 424.856 89.4273 418.462 93.7053C412.068 97.9833 404.501 100.122 395.761 100.122ZM395.761 94.6023C401.833 94.6023 407.031 92.8543 411.355 89.3583C415.679 85.8623 418.991 80.9173 421.291 74.5233C423.591 68.1293 424.741 60.5623 424.741 51.8223C424.741 43.0823 423.591 35.5153 421.291 29.1213C418.991 22.7273 415.679 17.7823 411.355 14.2863C407.031 10.7903 401.833 9.04235 395.761 9.04235C389.781 9.04235 384.606 10.7903 380.236 14.2863C375.866 17.7823 372.531 22.7273 370.231 29.1213C367.931 35.5153 366.781 43.0823 366.781 51.8223C366.781 60.5623 367.931 68.1293 370.231 74.5233C372.531 80.9173 375.866 85.8623 380.236 89.3583C384.606 92.8543 389.781 94.6023 395.761 94.6023Z" fill-rule="evenodd"/>
<path clip-path="url(#TextBounds_3)" d="M524.929 98.7423L465.589 24.9123L465.589 97.3623L460.069 97.3623L460.069 22.8423C460.069 18.7023 459.195 15.3673 457.447 12.8373C455.699 10.3073 452.433 9.04235 447.649 9.04235L446.269 9.04235L446.269 6.28235L455.239 6.28235C459.747 6.28235 463.45 7.01835 466.348 8.49035C469.246 9.96235 471.753 11.9863 473.869 14.5623L522.169 74.5923L522.169 6.28235L527.689 6.28235L527.689 98.7423L524.929 98.7423Z" fill-rule="evenodd"/>
<path clip-path="url(#TextBounds_3)" d="M554.047 97.3623L554.047 22.8423C554.047 18.7023 553.472 15.3673 552.322 12.8373C551.172 10.3073 548.527 9.04235 544.387 9.04235L541.627 9.04235L541.627 6.28235L600.415 6.28235C603.635 6.28235 606.073 6.81135 607.729 7.86935C609.385 8.92735 610.535 10.3073 611.179 12.0093C611.823 13.7113 612.145 15.4823 612.145 17.3223L612.145 27.6723L609.385 27.6723C609.385 22.1523 607.89 18.1273 604.9 15.5973C601.91 13.0673 597.655 11.8023 592.135 11.8023L566.467 11.8023L566.467 47.6823L603.727 47.6823L603.727 53.2023L566.467 53.2023L566.467 91.8423L590.617 91.8423C596.873 91.8423 601.818 90.6923 605.452 88.3923C609.086 86.0923 611.961 82.1823 614.077 76.6623L616.837 77.3523L612.007 90.4623C611.271 92.5783 610.052 94.2573 608.35 95.4993C606.648 96.7413 604.417 97.3623 601.657 97.3623L554.047 97.3623Z" fill-rule="evenodd"/>
</g>
</g>
</g>
</svg>
